<svg width="473" height="250" viewBox="0 0 473 250" fill="none" xmlns="http://www.w3.org/2000/svg">
<path d="M444.454 245.073C437.328 245.073 431.376 243.389 426.599 240.022C421.9 236.733 419.041 232.347 418.023 226.865H426.951C427.813 229.998 429.731 232.465 432.707 234.266C435.762 236.145 439.873 237.085 445.042 237.085C451.15 237.085 455.771 235.401 458.903 232.034C462.036 228.745 463.602 223.889 463.602 217.468V204.663L464.777 204.898C463.446 209.44 460.783 213.082 456.789 215.823C452.795 218.486 448.057 219.817 442.575 219.817C437.328 219.817 432.707 218.564 428.713 216.058C424.719 213.474 421.626 209.91 419.433 205.368C417.24 200.826 416.144 195.54 416.144 189.509C416.144 183.401 417.279 178.037 419.55 173.416C421.822 168.795 424.993 165.232 429.066 162.726C433.216 160.142 438.033 158.85 443.515 158.85C449.153 158.85 453.852 160.22 457.611 162.961C461.449 165.702 463.994 169.618 465.247 174.708L464.19 174.826V159.907H473V217.468C473 226.004 470.455 232.739 465.364 237.673C460.274 242.606 453.304 245.073 444.454 245.073ZM444.924 211.711C450.798 211.711 455.458 209.675 458.903 205.603C462.349 201.531 464.072 196.01 464.072 189.04C464.072 182.226 462.349 176.862 458.903 172.946C455.458 168.952 450.798 166.955 444.924 166.955C438.972 166.955 434.274 168.952 430.828 172.946C427.46 176.94 425.776 182.422 425.776 189.392C425.776 196.205 427.499 201.648 430.945 205.72C434.391 209.714 439.051 211.711 444.924 211.711Z" fill="black"/>
<path d="M354.984 219.817V159.907H363.795V174.003H364.382V219.817H354.984ZM397.861 219.817V180.582C397.861 176.04 396.726 172.633 394.455 170.362C392.184 168.091 388.816 166.955 384.352 166.955C380.437 166.955 376.952 167.817 373.897 169.539C370.921 171.262 368.572 173.651 366.849 176.705C365.204 179.759 364.382 183.323 364.382 187.395L362.855 173.181C364.891 168.717 367.985 165.193 372.135 162.609C376.364 160.024 381.141 158.732 386.467 158.732C392.732 158.732 397.744 160.533 401.503 164.136C405.34 167.66 407.259 172.32 407.259 178.115V219.817H397.861Z" fill="black"/>
<path d="M331.462 219.817V159.907H340.86V219.817H331.462ZM330.758 146.28V135.238H341.565V146.28H330.758Z" fill="black"/>
<path d="M307.94 219.817V135.238H317.338V219.817H307.94Z" fill="black"/>
<path d="M286.772 219.817C286.459 218.486 286.224 216.959 286.067 215.236C285.989 213.513 285.95 211.32 285.95 208.657H285.362V179.994C285.362 175.452 284.305 172.124 282.191 170.009C280.154 167.817 276.826 166.72 272.205 166.72C267.663 166.72 264.022 167.66 261.281 169.539C258.618 171.341 257.13 173.925 256.817 177.293H247.771C248.163 171.497 250.591 166.955 255.055 163.666C259.519 160.377 265.353 158.732 272.558 158.732C279.998 158.732 285.519 160.494 289.121 164.018C292.724 167.542 294.525 172.829 294.525 179.877V208.657C294.525 210.38 294.642 212.181 294.877 214.061C295.112 215.862 295.426 217.781 295.817 219.817H286.772ZM266.214 220.992C260.028 220.992 255.094 219.504 251.413 216.528C247.811 213.474 246.009 209.323 246.009 204.076C246.009 198.829 247.811 194.757 251.413 191.859C255.015 188.961 260.262 186.925 267.154 185.75L288.064 182.226V189.979L268.564 193.034C264.178 193.738 260.85 194.913 258.579 196.558C256.308 198.202 255.172 200.591 255.172 203.723C255.172 206.778 256.19 209.088 258.226 210.654C260.341 212.221 263.434 213.004 267.507 213.004C272.754 213.004 277.022 211.829 280.311 209.48C283.678 207.052 285.362 203.919 285.362 200.082L286.889 208.422C285.636 212.416 283.169 215.51 279.489 217.703C275.886 219.895 271.461 220.992 266.214 220.992Z" fill="black"/>
<path d="M234.385 220.874C227.728 220.874 222.873 219.386 219.819 216.41C216.843 213.356 215.355 208.97 215.355 203.253V145.928L224.752 142.404V203.136C224.752 206.503 225.614 208.97 227.337 210.537C229.06 212.103 231.879 212.886 235.795 212.886C237.361 212.886 238.692 212.808 239.789 212.651C240.964 212.416 241.903 212.142 242.608 211.829V219.817C241.825 220.13 240.689 220.365 239.201 220.522C237.792 220.757 236.186 220.874 234.385 220.874ZM203.02 167.895V159.907H242.608V167.895H203.02Z" fill="black"/>
<path d="M150.263 3.47491C140.914 -3.7105 79.7773 -6.16533 0 62.7896L89.1719 47.9018L36.0595 139.907C1.23497 194.957 19.5189 235.017 151.547 249.257L142.187 186.523C44.8393 215.03 34.7014 135.614 150.263 3.47491Z" fill="url(#paint0_linear_144_64)"/>
<path d="M129.418 129.185C115.753 107.167 150.6 60.8163 150.6 60.8163C150.6 60.8163 177.445 90.0244 155.548 101.805C133.651 113.585 200.085 140.551 200.085 140.551C200.085 140.551 143.083 151.203 129.418 129.185Z" fill="url(#paint1_linear_144_64)"/>
<defs>
<linearGradient id="paint0_linear_144_64" x1="75.7733" y1="0" x2="75.7733" y2="249.257" gradientUnits="userSpaceOnUse">
<stop offset="0.0817308" stop-color="#BB499F"/>
<stop offset="1" stop-color="#A83535"/>
</linearGradient>
<linearGradient id="paint1_linear_144_64" x1="128.078" y1="74.7942" x2="177.562" y2="154.529" gradientUnits="userSpaceOnUse">
<stop offset="0.0817308" stop-color="#BB499F"/>
<stop offset="1" stop-color="#A83535"/>
</linearGradient>
</defs>
</svg>
